<svg width="1920" height="766" xmlns="http://www.w3.org/2000/svg" xmlns:xlink="http://www.w3.org/1999/xlink"><defs><path id="a" d="M0 0h1920v766H0z"/></defs><g fill="none" fill-rule="evenodd"><mask id="b" fill="#fff"><use xlink:href="#a"/></mask><use fill="#141414" xlink:href="#a"/><g mask="url(#b)" fill="#161616" fill-rule="nonzero"><path d="M1062 474v-12H800v12zm0 111v-12H710v12z"/><path d="M1032 576h-12v41h12zm-191-46h-12v105h12zm158-66h-12v97h12zm33-21h-12v25h12z"/><path d="M900.938 462.524l-8.573 8.913 116.774 112.317 8.572-8.912zM1920 63V51H726v12z"/><path d="M890-60h-12v184h12zm142 114h-12v41h12zm-33-72h-12v69h12zm63 666v-12H800v12zm293 111v-12H887v12zm565-55v-12h-511v12z"/><path d="M890 636h-12v155h12zm142 114h-12v41h12zm-191-57h-12v78h12zm158-55h-12v97h12zm33-21h-12v25h12z"/><path d="M900.938 636.524l-8.573 8.913 116.774 112.317 8.572-8.912zM1062 300v-12H800v12zm0 111v-12H878v12z"/><path d="M890 288h-12v123h12zm142 114h-12v41h12zM841 300h-12v162h12zm158-10h-12v112h12zm33-21h-12v25h12zm30-143v-12H800v12zm0 111v-12H878v12z"/><path d="M890 114h-12v123h12zm142 114h-12v41h12zM841 126h-12v162h12zm158-10h-12v112h12zm33-21h-12v25h12zm292 553v-12h-262v12z"/><path d="M1152 636h-12v123h12zm-49-61h-12v235h12zm483 73v-12h-262v12zm0 111v-12h-184v12z"/><path d="M1414 636h-12v123h12zm142 114h-12v41h12zm-191-102h-12v162h12zm158-10h-12v112h12zm33-21h-12v25h12zM801 126v-12H0v12z"/><path d="M629 8h-12v118h12zm-49 12h-12v162h12zm158-10h-12v112h12zm141 353v-12H538v12zm1141 0v-12h-341v12zM800 474v-12H538v12zm-181-59v-12h-81v12z"/><path d="M628 351h-12v295h12zm142 114h-12v66h12zm-226-56h-12v120h12zm1169 65v-12h-389v12zm207 111v-12h-596v12zm-515-59v-12h-164v12z"/><path d="M1414 462h-12v179h12zm142 114h-12v41h12zm-33-112h-12v97h12z"/><path d="M1424.938 462.524l-8.573 8.913 116.774 112.317 8.572-8.912zM1261-58h-12V51h12zm153-2h-12V63h12zm142 114h-12v64h12zm-153 72v-12h-341v12zm-79 111v-12h-262v12zm-181-59v-12H995v12z"/><path d="M1152 114h-12v184h12zm142 114h-12v61h12zm-33-112h-12v97h12z"/><path d="M1162.938 114.524l-8.573 8.913 116.774 112.317 8.572-8.912zM0 363v-12h538v12zm0 111v-12h538v12zm457-59v-12h81v12z"/><path d="M448 351h12v179h-12zM306 465h12v41h-12zm33-112h12v97h-12zm-33-21h12v25h-12z"/><path d="M437.062 351.524l8.573 8.913-116.774 112.317-8.572-8.912zM137 415v-12h207v12z"/><path d="M128 351h12v179h-12zm-109 2h12v109H19zm118-103v-12h208v12z"/><path d="M128 186h12v179h-12zm-58 0h12v114H70zm67-107V67h313v12z"/><path d="M128 15h12v179h-12zM19 17h12v97H19z"/><path d="M0 189v-12h722v12zm0 111v-12h538v12z"/><path d="M448 177h12v174h-12zM306 291h12v41h-12zm33-112h12v110h-12zm-33-21h12v25h-12zm756 142v-12h262v12zm0 111v-12h262v12z"/><path d="M1234 288h12v174h-12zm-142 114h12v41h-12zm33-112h12v110h-12zm199 10v-12h262v12zm0 111v-12h320v12z"/><path d="M1496 288h12v174h-12zm-142 114h12v60h-12zm33-112h12v110h-12zm-325 184v-12h262v12zm0 111v-12h262v12z"/><path d="M1234 462h12v305h-12zm-109 2h12v110h-12zm-33-21h12v25h-12zm494 205v-12h243v12zm0 111v-12h262v12z"/><path d="M1758 636h12v174h-12zm-142 114h12v41h-12zm33-112h12v110h-12zm-33-166h12v170h-12zM0 20V8h1767v12z"/><path d="M448-9h12v191h-12zM306 122h12v41h-12zM206 1h12v119h-12zm70 536v-12h262v12zM0 648v-12h538v12z"/><path d="M448 525h12v174h-12zM306 639h12v41h-12zm33-112h12v110h-12zm-33-21h12v25h-12zM0 537v-12h289v12z"/><path d="M172 525h12v262h-12zM30 639h12v131H30zm33-112h12v110H63z"/><path d="M34 700v-12h504v12z"/><path d="M448 688h12v174h-12zm-109 2h12v110h-12zm-33-21h12v25h-12zm232-132v-12h427v12zm0 111v-12h262v12z"/><path d="M710 525h12v174h-12zM568 639h12v41h-12z"/><path d="M538 700v-12h341v12z"/><path d="M710 688h12v174h-12zm-109 2h12v110h-12zm-33-21h12v25h-12zm-30-369v-12h262v12zm-88-59v-12h385v12z"/><path d="M710 177h12v285h-12z"/><path d="M827.062 119.524l8.573 8.913-116.774 112.317-8.572-8.912zM568 158h12v25h-12zm756-32v-12h262v12zm0 111v-12h596v12zm181-59v-12h81v12z"/><path d="M1496 114h12v174h-12zm59 57h12v240h-12zm-168-55h12v117h-12zm-33-54h12v58h-12zm290 349v-12h294v12zm-22 111v-12h298v12zm203-59v-12h134v12z"/><path d="M1816 399h12v368h-12zm59 57h12v240h-12zm-168-55h12v240h-12zm-33-103h12v107h-12zm-88-172v-12h334v12z"/><path d="M1758 1h12v176h-12zm59 59h12v66h-12zM1649 1h12v121h-12z"/></g></g></svg>