<svg width="44" height="44" xmlns="http://www.w3.org/2000/svg"><g fill="none" fill-rule="evenodd"><path fill="#F1F1F1" fill-rule="nonzero" d="M28.83 6.762h5.899V37.07h-5.9z"/><path d="M18.252 37.07c5.842 0 10.578-4.735 10.578-10.577s-4.736-10.578-10.578-10.578S7.674 20.651 7.674 26.493s4.736 10.578 10.578 10.578zm0-15.459a4.882 4.882 0 100 9.764 4.882 4.882 0 000-9.764z" fill="#F1F1F1"/><path d="M6.171 41.913l-.314.615.314-.615zm-4.23-4.231l-.616.314.616-.314zm40.13 0l-.616-.314.616.314zm-4.23 4.23l-.314-.615.313.616zm4.23-35.9l.616-.313-.616.314zm-35.9-4.23l-.314-.615.314.616zm10.203-.363h11.264V.036H16.374V1.42zm26.06 14.797V27.48h1.383V16.216h-1.383zm-14.796 26.06H16.374v1.383h11.264v-1.383zM1.578 27.48V16.216H.193V27.48h1.383zm14.796 14.796c-2.722 0-4.722 0-6.302-.13-1.571-.128-2.665-.38-3.587-.85l-.628 1.232c1.15.586 2.446.861 4.103.997 1.649.135 3.715.134 6.414.134v-1.383zM.194 27.48c0 2.699 0 4.765.135 6.414.135 1.657.41 2.953.996 4.102l1.232-.628c-.47-.921-.722-2.015-.85-3.587-.13-1.58-.13-3.58-.13-6.301H.194zm6.291 13.817a8.99 8.99 0 01-3.928-3.929l-1.232.628a10.372 10.372 0 004.532 4.532l.628-1.231zm35.95-13.817c0 2.722-.001 4.722-.13 6.301-.128 1.572-.38 2.666-.85 3.587l1.232.628c.585-1.149.86-2.445.996-4.102.135-1.65.134-3.715.134-6.414h-1.383zM27.637 43.659c2.7 0 4.765 0 6.414-.134 1.657-.136 2.954-.41 4.102-.997l-.627-1.231c-.922.47-2.016.721-3.587.85-1.58.129-3.58.129-6.302.129v1.383zm13.817-6.29a8.992 8.992 0 01-3.928 3.928l.627 1.231a10.371 10.371 0 004.533-4.532l-1.232-.628zM27.638 1.418c2.722 0 4.722 0 6.302.13 1.571.128 2.665.38 3.587.85l.627-1.232C37.006.58 35.71.306 34.052.17 32.403.036 30.337.036 27.638.036V1.42zm16.18 14.797c0-2.7 0-4.766-.135-6.415-.135-1.656-.41-2.953-.996-4.102l-1.232.628c.47.921.722 2.016.85 3.587.129 1.58.13 3.58.13 6.302h1.382zM37.526 2.399a8.99 8.99 0 013.928 3.928l1.232-.628a10.37 10.37 0 00-4.533-4.532l-.627 1.232zM16.374.036c-2.7 0-4.765 0-6.414.134-1.657.136-2.954.411-4.103.997l.628 1.232c.922-.47 2.016-.722 3.587-.85 1.58-.13 3.58-.13 6.302-.13V.036zM1.577 16.216c0-2.722 0-4.722.13-6.302.128-1.571.38-2.666.85-3.587l-1.232-.628C.739 6.849.464 8.145.329 9.801c-.135 1.65-.135 3.715-.135 6.415h1.383zm4.28-15.05A10.371 10.371 0 001.325 5.7l1.232.628A8.989 8.989 0 016.485 2.4l-.628-1.232z" fill="#F5F5F5" fill-rule="nonzero"/></g></svg>