<svg width="400" height="400" xmlns="http://www.w3.org/2000/svg"><g fill="none" fill-rule="evenodd"><path d="M0 0h400v400H0z"/><path d="M366.308 164.666l-333.973-1.004-.335 97.31c.022 12.911 10.484 23.373 23.396 23.395a44.354 44.354 0 0114.919 2.374 42.46 42.46 0 0113.562 6.78l21.36 14.918c.335 0 .335.335.67.335a140.208 140.208 0 0024.41 12.883 111.398 111.398 0 0037.635 7.798h52.229a97.628 97.628 0 0044.756-10.51 121.606 121.606 0 0024.752-16.613l7.121-6.441a41.224 41.224 0 0128.14-10.85c22.559.077 40.916-18.134 41.02-40.693l.338-79.682z" fill="#D8D8D8" fill-rule="nonzero"/><path d="M309.345 94.827a55.48 55.48 0 0125.445 6.441 54.763 54.763 0 0121.698 19.667c.67.67 1.005 2.035 2.036 2.711a37.07 37.07 0 012.712 5.086 25.562 25.562 0 002.035 4.41c.335.669.335 1.693.67 2.373a52.493 52.493 0 012.712 17.969v23.054a76.579 76.579 0 01-2.712 17.969c-.335.67-.335 1.694-.67 2.374a12.85 12.85 0 01-2.035 4.409c-.67 2.035-2.036 3.391-2.712 5.085a7.111 7.111 0 01-2.036 2.712 53.856 53.856 0 01-22.378 19.325 61.078 61.078 0 01-25.445 6.103h-.67l-214.961-.67a79.348 79.348 0 01-20.004-3.05 57.438 57.438 0 01-17.969-9.494h-.335a56.866 56.866 0 01-22.389-44.76v-25.09a54.804 54.804 0 0122.717-44.756h.335a64.144 64.144 0 0117.969-9.153 68.239 68.239 0 0120.004-3.05l214.962.67 1.021-.335z" fill="#141414" fill-rule="nonzero"/><path d="M265.948 97.227l-8.477-21.022a9.602 9.602 0 00-9.495-6.104 10.255 10.255 0 00-9.833 12.883l2.036 7.46a10.968 10.968 0 009.833 7.12l15.936-.337z" fill="#141414" fill-rule="nonzero"/><path d="M295.106 104.318l-188.513-.67a229.884 229.884 0 00146.81 10.852l41.703-10.182z" fill="#FFF" fill-rule="nonzero"/><path d="M265.607 232.98l-8.477 21.023a10.084 10.084 0 01-9.495 6.103 10.255 10.255 0 01-9.833-12.883l2.035-7.46a9.609 9.609 0 019.833-7.12l15.937.338z" fill="#141414" fill-rule="nonzero"/><path d="M309.007 124.33v82.049a10.86 10.86 0 01-14.58 8.818l-53.569-16.612v-68.49l53.903-16.282a10.921 10.921 0 0114.24 9.154l.006 1.362zm-14.243 100.697l-188.512-.335a232.197 232.197 0 01146.81-10.17l41.702 10.505zM75.397 194.513c4.41 15.595 16.954 24.752 29.499 20.343l33.229-11.865.335-77.306-33.226-12.22c-12.545-4.41-25.445 4.068-29.5 20.343a118.767 118.767 0 00-.334 60.689" fill="#FFF" fill-rule="nonzero"/><path d="M106.593 94.492a38.358 38.358 0 0118.987-5.424h38.314a37.387 37.387 0 0118.987 5.424h-76.288zm-.341 138.154a38.358 38.358 0 0018.986 5.424h38.315a37.387 37.387 0 0018.986-5.424h-76.287z" fill="#141414" fill-rule="nonzero"/><path d="M169.62 158.475c0-5.9 0-8.85 1.149-11.103a10.534 10.534 0 014.603-4.603c2.254-1.148 5.203-1.148 11.103-1.148h12.257c5.9 0 8.849 0 11.102 1.148a10.533 10.533 0 014.603 4.603c1.149 2.254 1.149 5.203 1.149 11.103v12.257c0 5.9 0 8.849-1.149 11.102a10.533 10.533 0 01-4.603 4.603c-2.253 1.149-5.203 1.149-11.102 1.149h-12.257c-5.9 0-8.85 0-11.103-1.149a10.533 10.533 0 01-4.603-4.603c-1.148-2.253-1.148-5.203-1.148-11.102v-12.257z"/><path fill="#FFA300" fill-rule="nonzero" d="M200.029 148.187h6.42v32.982h-6.42z"/><path d="M188.518 181.169c6.357 0 11.51-5.154 11.51-11.51 0-6.358-5.153-11.511-11.51-11.511s-11.51 5.153-11.51 11.51 5.153 11.51 11.51 11.51zm0-16.823a5.313 5.313 0 100 10.625 5.313 5.313 0 000-10.625z" fill="#FFA300"/><path d="M170.769 181.834l.67-.341-.67.341zm43.668 0l-.67-.341.67.341zm-4.603 4.603l-.341-.67.341.67zm0-43.668l-.341.67.341-.67zm4.603 4.603l-.67.342.67-.342zm-27.962-4.999h12.257v-1.505h-12.257v1.505zm28.358 16.102v12.257h1.505v-12.257h-1.505zm-16.101 28.358h-12.257v1.505h12.257v-1.505zm-28.359-16.101v-12.257h-1.505v12.257h1.505zm16.102 16.101c-2.963 0-5.139 0-6.858-.14-1.71-.14-2.9-.415-3.903-.926l-.683 1.34c1.25.638 2.66.938 4.464 1.085 1.794.147 4.042.146 6.98.146v-1.505zm-17.607-16.101c0 2.937 0 5.185.146 6.98.148 1.803.447 3.213 1.085 4.464l1.34-.683c-.51-1.003-.785-2.194-.925-3.904-.14-1.719-.14-3.895-.14-6.857h-1.506zm6.846 15.035a9.781 9.781 0 01-4.275-4.274l-1.34.683a11.286 11.286 0 004.932 4.932l.683-1.34zm39.12-15.035c0 2.962-.001 5.138-.142 6.857-.14 1.71-.414 2.9-.925 3.904l1.34.683c.638-1.25.938-2.661 1.085-4.464.147-1.795.146-4.043.146-6.98h-1.505zm-16.102 17.606c2.937 0 5.185 0 6.98-.146 1.803-.147 3.213-.447 4.464-1.084l-.683-1.34c-1.003.51-2.194.784-3.904.924-1.719.14-3.895.141-6.857.141v1.505zm15.035-6.845a9.781 9.781 0 01-4.274 4.274l.683 1.34a11.286 11.286 0 004.932-4.931l-1.34-.683zm-15.035-39.12c2.962 0 5.138 0 6.857.141 1.71.14 2.9.414 3.904.925l.683-1.34c-1.25-.638-2.661-.937-4.464-1.085-1.795-.146-4.043-.146-6.98-.146v1.505zm17.606 16.102c0-2.938 0-5.186-.146-6.98-.147-1.803-.447-3.214-1.084-4.464l-1.34.683c.51 1.003.784 2.193.924 3.903.14 1.72.141 3.895.141 6.858h1.505zm-6.845-15.036a9.781 9.781 0 014.274 4.275l1.34-.683a11.286 11.286 0 00-4.931-4.932l-.683 1.34zm-23.018-2.57c-2.938 0-5.186-.001-6.98.145-1.803.148-3.214.447-4.464 1.085l.683 1.34c1.003-.51 2.193-.785 3.903-.925 1.72-.14 3.895-.14 6.858-.14v-1.506zm-16.102 17.606c0-2.963 0-5.139.141-6.858.14-1.71.414-2.9.925-3.903l-1.34-.683c-.638 1.25-.937 2.66-1.085 4.464-.146 1.794-.146 4.042-.146 6.98h1.505zm4.658-16.376a11.286 11.286 0 00-4.932 4.932l1.34.683a9.781 9.781 0 014.275-4.275l-.683-1.34z" fill="#FFA300" fill-rule="nonzero"/></g></svg>