<svg width="342" height="220" xmlns="http://www.w3.org/2000/svg"><g fill="none" fill-rule="evenodd"><path d="M0 0h342v211H0z"/><g fill-rule="nonzero"><path fill="#FFA300" d="M81.312 60.544h52.272v104.544H81.312z"/><path fill="#E4E4E4" d="M133.584 8.272h52.272v156.904h-52.272z"/><path fill="#FFA300" d="M185.944 60.544h52.272v104.544h-52.272z"/><path fill="#E4E4E4" d="M238.216 8.272h52.272v156.904h-52.272z"/><path fill="#FFF" d="M290.488-44h52.272v209.176h-52.272z"/><g transform="translate(0 102.96)"><path d="M209.987 59.076V33.75l-9.814-2.775a185.972 185.972 0 00-29.686-7.93l-6.988-1.239-36.724-15.71A75.887 75.887 0 0096.989 0H71.516c-7.851 0-15.61 1.69-22.749 4.956L22.353 16.998H12.44a8.321 8.321 0 00-8.079 6.295L0 40.293l1.338 5.6a18.597 18.597 0 0011.795 13.183L21.26 62c1.434.507 2.94.774 4.46.792h180.55a3.68 3.68 0 003.717-3.716z" fill="#FFF"/><path d="M43.167 15.81l6.046 5.65h77.661v-4.065a2.274 2.274 0 012.282-2.282h1.732a8.914 8.914 0 013.37.694l12.935 5.55c.187.082.391.116.595.1a1.499 1.499 0 00.594-2.874l-22.45-9.613A73.075 73.075 0 0097.09 3.073H71.615A52.412 52.412 0 0049.856 7.78l-5.749 2.626a3.274 3.274 0 00-.94 5.402zM13.134 59.076h196.853a3.659 3.659 0 01-3.668 3.667H25.722a12.45 12.45 0 01-4.46-.791l-8.128-2.876z" fill="#000"/><path d="M152.745 60.91l35.782.049V52.83c-.013-9.876-8.016-17.878-17.891-17.891-9.876.013-17.878 8.015-17.891 17.89v8.08zm-129.303 0h35.783v-8.03c-.013-9.876-8.016-17.879-17.892-17.891-9.875.013-17.878 8.015-17.89 17.89v8.03z" fill="#000"/><circle fill="#000" cx="41.333" cy="52.831" r="16.058"/><circle fill="#000" cx="170.636" cy="52.831" r="16.058"/><circle fill="#FFF" cx="170.636" cy="52.831" r="10.705"/><circle fill="#FFF" cx="41.333" cy="52.831" r="10.705"/><path d="M209.985 48.718h-7.532a1.77 1.77 0 00-1.536 2.626l4.51 8.178h4.61V48.718h-.052zM2.082 32.165h9.515a6.258 6.258 0 004.46-1.834l5.006-5.006a1.164 1.164 0 00-.842-1.982H4.364l-2.282 8.822z" fill="#000"/></g><path d="M185.653 136.71v1.636c.002.929.67 1.723 1.585 1.883l19.973 2.776-2.924-6.295h-18.634z" fill="#FFA300"/><path fill="#000" d="M209.987 143.401v-6.69h-5.65l2.924 6.294z"/><g transform="translate(84.48 176)"><circle fill="#FFA300" cx="17.16" cy="17.16" r="17.16"/><path d="M18.445 25.942v-2.041c1.044-.153 1.924-.54 2.64-1.162.716-.622 1.073-1.496 1.073-2.622 0-.599-.096-1.109-.29-1.531-.194-.423-.52-.778-.977-1.065a7.187 7.187 0 00-1.513-.713c-.552-.188-1.28-.375-2.183-.563-.892-.188-1.487-.358-1.786-.51-.3-.153-.449-.4-.449-.74 0-.422.176-.765.528-1.03.352-.263.886-.395 1.602-.395 1.29 0 2.088.492 2.393 1.478h2.552c-.129-.939-.487-1.742-1.073-2.411-.587-.669-1.432-1.103-2.535-1.303V9.258h-2.499v2.059c-1.02.2-1.86.622-2.517 1.267-.657.645-.985 1.484-.985 2.517 0 .586.108 1.091.325 1.513.217.423.537.769.96 1.039.422.27.85.48 1.284.633.434.153.968.294 1.602.423a5.855 5.855 0 00.405.088c.75.164 1.273.287 1.566.37a2 2 0 01.748.378c.205.17.308.396.308.677 0 .446-.185.792-.554 1.039-.37.246-.907.37-1.61.37-.846 0-1.482-.147-1.91-.44-.429-.294-.73-.757-.907-1.391H12.11c.14.997.519 1.86 1.135 2.587.616.728 1.51 1.209 2.684 1.443v2.112h2.517z" fill="#141414"/></g><g transform="translate(191.84 176)"><circle fill="#FFA300" cx="17.16" cy="17.16" r="17.16"/><path d="M18.445 25.942v-2.041c1.044-.153 1.924-.54 2.64-1.162.716-.622 1.073-1.496 1.073-2.622 0-.599-.096-1.109-.29-1.531-.194-.423-.52-.778-.977-1.065a7.187 7.187 0 00-1.513-.713c-.552-.188-1.28-.375-2.183-.563-.892-.188-1.487-.358-1.786-.51-.3-.153-.449-.4-.449-.74 0-.422.176-.765.528-1.03.352-.263.886-.395 1.602-.395 1.29 0 2.088.492 2.393 1.478h2.552c-.129-.939-.487-1.742-1.073-2.411-.587-.669-1.432-1.103-2.535-1.303V9.258h-2.499v2.059c-1.02.2-1.86.622-2.517 1.267-.657.645-.985 1.484-.985 2.517 0 .586.108 1.091.325 1.513.217.423.537.769.96 1.039.422.27.85.48 1.284.633.434.153.968.294 1.602.423a5.855 5.855 0 00.405.088c.75.164 1.273.287 1.566.37a2 2 0 01.748.378c.205.17.308.396.308.677 0 .446-.185.792-.554 1.039-.37.246-.907.37-1.61.37-.846 0-1.482-.147-1.91-.44-.429-.294-.73-.757-.907-1.391H12.11c.14.997.519 1.86 1.135 2.587.616.728 1.51 1.209 2.684 1.443v2.112h2.517z" fill="#141414"/></g><g transform="translate(138.16 176)"><circle fill="#E4E4E4" cx="17.16" cy="17.16" r="17.16"/><path d="M18.445 25.942v-2.041c1.044-.153 1.924-.54 2.64-1.162.716-.622 1.073-1.496 1.073-2.622 0-.599-.096-1.109-.29-1.531-.194-.423-.52-.778-.977-1.065a7.187 7.187 0 00-1.513-.713c-.552-.188-1.28-.375-2.183-.563-.892-.188-1.487-.358-1.786-.51-.3-.153-.449-.4-.449-.74 0-.422.176-.765.528-1.03.352-.263.886-.395 1.602-.395 1.29 0 2.088.492 2.393 1.478h2.552c-.129-.939-.487-1.742-1.073-2.411-.587-.669-1.432-1.103-2.535-1.303V9.258h-2.499v2.059c-1.02.2-1.86.622-2.517 1.267-.657.645-.985 1.484-.985 2.517 0 .586.108 1.091.325 1.513.217.423.537.769.96 1.039.422.27.85.48 1.284.633.434.153.968.294 1.602.423a5.855 5.855 0 00.405.088c.75.164 1.273.287 1.566.37a2 2 0 01.748.378c.205.17.308.396.308.677 0 .446-.185.792-.554 1.039-.37.246-.907.37-1.61.37-.846 0-1.482-.147-1.91-.44-.429-.294-.73-.757-.907-1.391H12.11c.14.997.519 1.86 1.135 2.587.616.728 1.51 1.209 2.684 1.443v2.112h2.517z" fill="#141414"/></g><g transform="translate(245.52 176)"><circle fill="#E4E4E4" cx="17.16" cy="17.16" r="17.16"/><path d="M18.445 25.942v-2.041c1.044-.153 1.924-.54 2.64-1.162.716-.622 1.073-1.496 1.073-2.622 0-.599-.096-1.109-.29-1.531-.194-.423-.52-.778-.977-1.065a7.187 7.187 0 00-1.513-.713c-.552-.188-1.28-.375-2.183-.563-.892-.188-1.487-.358-1.786-.51-.3-.153-.449-.4-.449-.74 0-.422.176-.765.528-1.03.352-.263.886-.395 1.602-.395 1.29 0 2.088.492 2.393 1.478h2.552c-.129-.939-.487-1.742-1.073-2.411-.587-.669-1.432-1.103-2.535-1.303V9.258h-2.499v2.059c-1.02.2-1.86.622-2.517 1.267-.657.645-.985 1.484-.985 2.517 0 .586.108 1.091.325 1.513.217.423.537.769.96 1.039.422.27.85.48 1.284.633.434.153.968.294 1.602.423a5.855 5.855 0 00.405.088c.75.164 1.273.287 1.566.37a2 2 0 01.748.378c.205.17.308.396.308.677 0 .446-.185.792-.554 1.039-.37.246-.907.37-1.61.37-.846 0-1.482-.147-1.91-.44-.429-.294-.73-.757-.907-1.391H12.11c.14.997.519 1.86 1.135 2.587.616.728 1.51 1.209 2.684 1.443v2.112h2.517z" fill="#141414"/></g><g transform="translate(299.2 176)"><circle fill="#FFF" cx="17.16" cy="17.16" r="17.16"/><path d="M18.445 25.942v-2.041c1.044-.153 1.924-.54 2.64-1.162.716-.622 1.073-1.496 1.073-2.622 0-.599-.096-1.109-.29-1.531-.194-.423-.52-.778-.977-1.065a7.187 7.187 0 00-1.513-.713c-.552-.188-1.28-.375-2.183-.563-.892-.188-1.487-.358-1.786-.51-.3-.153-.449-.4-.449-.74 0-.422.176-.765.528-1.03.352-.263.886-.395 1.602-.395 1.29 0 2.088.492 2.393 1.478h2.552c-.129-.939-.487-1.742-1.073-2.411-.587-.669-1.432-1.103-2.535-1.303V9.258h-2.499v2.059c-1.02.2-1.86.622-2.517 1.267-.657.645-.985 1.484-.985 2.517 0 .586.108 1.091.325 1.513.217.423.537.769.96 1.039.422.27.85.48 1.284.633.434.153.968.294 1.602.423a5.855 5.855 0 00.405.088c.75.164 1.273.287 1.566.37a2 2 0 01.748.378c.205.17.308.396.308.677 0 .446-.185.792-.554 1.039-.37.246-.907.37-1.61.37-.846 0-1.482-.147-1.91-.44-.429-.294-.73-.757-.907-1.391H12.11c.14.997.519 1.86 1.135 2.587.616.728 1.51 1.209 2.684 1.443v2.112h2.517z" fill="#141414"/></g></g></g></svg>