<svg width="512" height="512" xmlns="http://www.w3.org/2000/svg"><g fill="none" fill-rule="evenodd"><path d="M0 0h400v400H0z"/><path d="M1 101h494v296H1z"/><path d="M202.6 101h20v296.3h-20zm226.6 0h17.1v216.7h-17.1z" fill="#FFF" fill-rule="nonzero"/><path d="M1 240h436.8v20H1zm0 63.7h444.6v17.1H1zm0-125.9h494.5v20H1z" fill="#FFF" fill-rule="nonzero"/><path d="M51.8 187.8h20v209.4h-20zm76.8 62.2h20v63h-20zm223.576 149.048l145.099-152.902 12.397 11.764-145.099 152.903zM157.2 196.8a5.029 5.029 0 002.7.8h5.3a5.189 5.189 0 002.7-.7l-10.7-.1z" fill="#FFF" fill-rule="nonzero"/><path d="M82.8 188a24.01 24.01 0 01-12.9 21.3 24.27 24.27 0 01-11.1 2.7c-3.35.04-6.666-.678-9.7-2.1-10.934-4.849-16.623-17.014-13.334-28.514 3.29-11.5 14.55-18.817 26.394-17.152C74.004 165.9 82.81 176.04 82.8 188z" fill="#141414" fill-rule="nonzero"/><path d="M47 177h24v24H47z"/><path d="M54.58 181.08l-1.43-1.43c-2.4 1.83-3.98 4.65-4.12 7.85h2a8.445 8.445 0 013.55-6.42zm12.39 6.42h2c-.15-3.2-1.73-6.02-4.12-7.85l-1.42 1.43a8.495 8.495 0 013.54 6.42zM65 188c0-3.07-1.64-5.64-4.5-6.32V181c0-.83-.67-1.5-1.5-1.5s-1.5.67-1.5 1.5v.68c-2.87.68-4.5 3.24-4.5 6.32v5l-2 2v1h16v-1l-2-2v-5zm-6 11c.14 0 .27-.01.4-.04.65-.14 1.18-.58 1.44-1.18.1-.24.15-.5.15-.78h-4c.01 1.1.9 2 2.01 2z" fill="#FFA300" fill-rule="nonzero"/><g fill-rule="nonzero"><path d="M201.3 188.4H155v13.5a3.222 3.222 0 003.2 3.2c.71.001 1.417.102 2.1.3.677.197 1.319.5 1.9.9l3 2 .1.1a22.1 22.1 0 003.4 1.8 17.85 17.85 0 005.2 1.1h7.2a14.44 14.44 0 006.2-1.4 15.645 15.645 0 003.4-2.3l1-.9a5.7 5.7 0 013.9-1.6 5.763 5.763 0 005.7-5.7v-11z" fill="#CBCBCB"/><path d="M193.3 178a7.03 7.03 0 013.5.9 8.117 8.117 0 013.1 2.7c.1.2.2.2.2.4.2.2.2.5.4.7.11.182.18.388.2.6.077.08.114.19.1.3.238.813.373 1.653.4 2.5v3.2a10.054 10.054 0 01-.4 2.5c0 .1-.1.2-.1.3-.11.182-.18.388-.2.6-.095.253-.23.49-.4.7-.1.2-.2.2-.2.4a8.009 8.009 0 01-3.1 2.7 8.25 8.25 0 01-3.5.9h-30.1a8.082 8.082 0 01-2.7-.5 9.98 9.98 0 01-2.5-1.3 7.769 7.769 0 01-3.1-6.3V186a8.211 8.211 0 013.1-6.3 11.88 11.88 0 012.5-1.3 8.574 8.574 0 012.7-.5h29.9l.2.1z" fill="#141414"/><path d="M187.3 178l-1.2-2.9a1.424 1.424 0 00-1.3-.9 1.377 1.377 0 00-1.3 1.8l.3 1c.167.582.694.988 1.3 1h2.2z" fill="#141414"/><path d="M191.4 179.2h-26.2a32.452 32.452 0 0020.4 1.5l5.8-1.5z" fill="#FFF"/><path d="M187.3 197.3l-1.2 2.9c-.212.535-.725.89-1.3.9a1.377 1.377 0 01-1.3-1.8l.3-1a1.381 1.381 0 011.3-1h2.2z" fill="#141414"/><path d="M193.3 182.1v11.4a1.586 1.586 0 01-2 1.3l-7.4-2.3v-9.6l7.4-2.3a1.529 1.529 0 012 1.3v.2zm-1.9 14h-26.2a32.452 32.452 0 0120.4-1.5l5.8 1.5zm-30.5-4.3c.5 2.2 2.3 3.4 4.1 2.8l4.6-1.6v-10.7l-4.6-1.6c-1.7-.6-3.5.6-4.1 2.8-.8 2.709-.8 5.591 0 8.3z" fill="#FFF"/></g><g fill-rule="nonzero"><path d="M222.8 208.16a9.869 9.869 0 00-.9-4.128c-.684-1.472-1.68-2.736-2.9-3.682-.2-.111-.2-.223-.4-.223-.2-.223-.5-.223-.7-.446a1.335 1.335 0 00-.7-.223.344.344 0 00-.3-.112 9.836 9.836 0 00-2.6-.446h-3.2c-.88.03-1.753.18-2.6.446-.1 0-.2.112-.3.112-.212.14-.453.216-.7.223-.253.106-.49.256-.7.446-.2.112-.2.223-.4.223-1.218.95-2.212 2.213-2.9 3.682a9.507 9.507 0 00-.9 4.128v34.922c.012 1.101.18 2.193.5 3.235.29 1.04.73 2.019 1.3 2.901 1.53 2.295 3.936 3.657 6.5 3.682h3.6c2.569 0 4.984-1.368 6.5-3.682a7.467 7.467 0 001.3-2.9c.32-1.043.488-2.135.5-3.236V208.16z" fill="#CBCBCB"/><path d="M222.8 207.7a8.081 8.081 0 00-.9-3.7 9.133 9.133 0 00-2.9-3.3c-.2-.1-.2-.2-.4-.2-.2-.2-.5-.2-.7-.4a1.445 1.445 0 00-.7-.2.367.367 0 00-.3-.1 10.872 10.872 0 00-2.6-.4h-3.2a10.89 10.89 0 00-2.6.4c-.1 0-.2.1-.3.1a1.445 1.445 0 01-.7.2c-.253.095-.49.23-.7.4-.2.1-.2.2-.4.2a9.249 9.249 0 00-2.9 3.3 7.786 7.786 0 00-.9 3.7V239c.012.987.18 1.966.5 2.9.29.931.73 1.809 1.3 2.6a8.192 8.192 0 006.5 3.3h3.6a8.053 8.053 0 006.5-3.3 6.382 6.382 0 001.3-2.6c.32-.934.488-1.913.5-2.9v-31.3z" fill="#FFF"/><path d="M222.8 213.9l3 1.2c.561.177.931.712.9 1.3a1.482 1.482 0 01-1.9 1.4l-1.1-.3a1.391 1.391 0 01-1.1-1.4l.2-2.2z" fill="#FFF"/><path d="M221.5 209.7V237a33.834 33.834 0 01-1.5-21.3l1.5-6z" fill="#141414"/><path d="M202.7 213.9l-3 1.2a1.291 1.291 0 00-.9 1.3 1.482 1.482 0 001.9 1.4l1.1-.3c.656-.14 1.12-.73 1.1-1.4l-.2-2.2z" fill="#FFF"/><path d="M218.5 207.7h-12a1.529 1.529 0 00-1.3 2l2.4 7.7h10l2.4-7.7a1.465 1.465 0 00-1.3-2h-.2zm-14.5 2V237a33.834 33.834 0 001.5-21.3l-1.5-6zm4.4 31.7c-2.3-.6-3.6-2.4-2.9-4.2l1.7-4.8h11.2l1.7 4.8c.7 1.8-.7 3.7-2.9 4.2-2.879.8-5.921.8-8.8 0z" fill="#141414"/></g><path d="M221 176v24h-24v-24z"/><path d="M208.74 197.16l1.41-1.41-3.55-3.56-1.41 1.41s3.52 3.45 3.55 3.56zM213 189v-2h-5v2h5zm-7.81-6.6l1.41 1.41 3.56-3.55-1.42-1.42c-.03.11-3.55 3.56-3.55 3.56z" fill="#FFA300" fill-rule="nonzero"/></g></svg>