<svg width="68" height="68" xmlns="http://www.w3.org/2000/svg"><g fill="none" fill-rule="evenodd"><path d="M0 0h68v68H0z"/><g fill-rule="nonzero"><path d="M61 48.166C55.823 58.15 45.393 65 33.4 65 16.244 65 2.292 50.997 2.292 33.813H0L5.07 25l5.071 8.813H7.85c0 14.125 11.462 25.616 25.536 25.616 11.173 0 20.677-7.214 24.138-17.245L61 48.166z" fill="#19191C"/><path d="M67 33.19L61.928 42l-5.072-8.81h2.278c0-14.119-11.465-25.606-25.542-25.606-11.176 0-20.683 7.212-24.145 17.238L6 18.828C11.178 8.847 21.61 2 33.607 2c17.16 0 31.115 13.998 31.115 31.175H67v.016z" fill="#E4E4E4"/><path d="M48.428 37.238a14.307 14.307 0 01-1.227 2.974l2.485 3.986-4.48 4.476-3.988-2.484c-.951.522-1.948.935-2.976 1.242L37.168 52h-6.336l-1.074-4.568a15.26 15.26 0 01-2.976-1.242l-3.989 2.484-4.48-4.476 2.486-3.986a14.306 14.306 0 01-1.227-2.974L15 36.165v-6.33l4.572-1.073a14.306 14.306 0 011.227-2.974l-2.485-3.986 4.48-4.476 3.988 2.484a15.271 15.271 0 012.976-1.242L30.832 14h6.336l1.074 4.568a15.18 15.18 0 012.976 1.242l3.989-2.484 2.24 2.238 2.24 2.238-2.486 3.986c.522.95.936 1.947 1.227 2.974L53 29.835v6.33l-4.572 1.073z" fill="#FFA300"/><path d="M34 43c5.523 0 10-4.477 10-10s-4.477-10-10-10-10 4.477-10 10 4.477 10 10 10z" fill="#FFF"/><path d="M33.5 38a4.5 4.5 0 100-9 4.5 4.5 0 000 9z" fill="#141414"/></g></g></svg>