<svg width="400" height="400" xmlns="http://www.w3.org/2000/svg"><g fill="none" fill-rule="evenodd"><path d="M0 0h400v400H0z"/><g fill-rule="nonzero"><path d="M158.6 93.68h147.764v241.112H158.6c-66.582 0-120.556-53.975-120.556-120.556 0-66.582 53.974-120.557 120.556-120.557" fill="#FFF"/><path d="M211.385 280.029v15.053a13.365 13.365 0 0013.41 13.41h123.452a13.365 13.365 0 0013.41-13.41v-15.053H211.385zM361.572 93.68V78.625a13.365 13.365 0 00-13.41-13.41H224.71a13.365 13.365 0 00-13.412 13.41V93.68h150.275z" fill="#000"/><path fill="#FFF" d="M211.385 93.68h150.187v186.435H211.385z"/><path fill="#C7C7C7" d="M236.127 194.208h28.809v28.809h-28.81z"/><path fill="#FFA300" d="M307.756 136.504h28.81v86.427h-28.81z"/><path fill="#141414" d="M272.38 165.399h28.809v57.618h-28.81z"/><path d="M286.477 288.075c.92-.004 1.83.172 2.682.518a5.853 5.853 0 012.25 1.558 8.058 8.058 0 011.557 2.249 7.187 7.187 0 010 5.364 5.853 5.853 0 01-1.558 2.25 8.058 8.058 0 01-2.249 1.556 7.187 7.187 0 01-5.364 0 5.853 5.853 0 01-2.25-1.557 8.058 8.058 0 01-1.556-2.25 7.187 7.187 0 010-5.363 5.853 5.853 0 011.56-2.246 8.059 8.059 0 012.25-1.558 7.382 7.382 0 012.681-.518" fill="#FFF"/></g><path d="M79.58 175.88h95.04v95.04H79.58z"/><path d="M164.364 221.737l-35.64-35.64a7.87 7.87 0 00-5.584-2.297H95.42c-4.356 0-7.92 3.564-7.92 7.92v27.72c0 2.178.871 4.158 2.336 5.623l35.64 35.64A7.87 7.87 0 00131.06 263a7.743 7.743 0 005.584-2.336l27.72-27.72a7.743 7.743 0 002.336-5.584c0-2.178-.91-4.198-2.336-5.623zM101.36 203.6a5.932 5.932 0 01-5.94-5.94 5.932 5.932 0 015.94-5.94 5.932 5.932 0 015.94 5.94 5.932 5.932 0 01-5.94 5.94zm46.61 32.75l-16.91 16.908-16.91-16.909c-1.781-1.821-2.89-4.277-2.89-7.009 0-5.465 4.435-9.9 9.9-9.9a9.779 9.779 0 017.01 2.93l2.89 2.852 2.89-2.891a9.908 9.908 0 017.01-2.891c5.465 0 9.9 4.435 9.9 9.9a9.908 9.908 0 01-2.89 7.01z" fill="#141414" fill-rule="nonzero"/></g></svg>