<svg width="24" height="24" xmlns="http://www.w3.org/2000/svg"><g fill="none" fill-rule="evenodd"><path d="M0 0h24v24H0z"/><g fill-rule="nonzero"><path d="M12.847 10.666V10.6c-.013.022-.032.044-.044.066h.044z" fill="#000"/><path d="M0 0v23.66h23.66V0H0zm7.36 19.656H3.848V9.096h3.51v10.56zM5.603 7.654H5.58c-1.178 0-1.941-.812-1.941-1.826 0-1.036.786-1.824 1.987-1.824 1.202 0 1.94.788 1.963 1.824 0 1.014-.761 1.826-1.986 1.826zM20.02 19.656h-3.511v-5.65c0-1.42-.508-2.388-1.778-2.388-.97 0-1.548.652-1.802 1.284-.092.226-.116.54-.116.856v5.898H9.3s.047-9.57 0-10.56h3.512v1.496c.466-.718 1.3-1.745 3.164-1.745 2.311 0 4.043 1.51 4.043 4.753v6.056z" fill="#F1F1F1"/></g></g></svg>