<svg width="68" height="68" xmlns="http://www.w3.org/2000/svg"><g fill="none" fill-rule="evenodd"><path d="M0 0h68v68H0z"/><g fill-rule="nonzero"><path d="M13.944 60.056v4.204a3.743 3.743 0 003.75 3.74h34.595a3.743 3.743 0 003.75-3.74v-4.204H13.943zM56.046 7.944V3.74c0-2.07-1.681-3.74-3.75-3.74H17.702a3.75 3.75 0 00-3.757 3.74v4.204h42.102z" fill="#141414"/><path fill="#E4E4E4" d="M56.046 7.944H13.944v52.112h42.102z"/><path d="M34.999 66.207a1.965 1.965 0 001.967-1.963c0-1.084-.88-1.962-1.967-1.962a1.965 1.965 0 00-1.968 1.962c0 1.084.881 1.963 1.968 1.963zm-.419-13.832v-16.76l21.466-21.412V9.829L34.581 31.241V7.944h-3.099v4.83H13.944v3.09h17.538v18.468L13.944 51.827v3.64h42.102v-3.092H34.581zm-3.098 0H17.78l13.703-13.67v13.67z" fill="#FFF"/><path d="M24.348 20.833c-3.053-3.045-8.01-3.045-11.062 0a7.786 7.786 0 00-1.24 9.412l-.007.007 6.778 11.645 6.778-11.645-.008-.007c1.72-2.983 1.317-6.862-1.24-9.412z" fill="#FFA300"/><path d="M18.81 28.745a2.398 2.398 0 002.4-2.395 2.398 2.398 0 00-2.4-2.395 2.398 2.398 0 00-2.402 2.395 2.398 2.398 0 002.401 2.395z" fill="#141414"/></g></g></svg>