<svg width="241" height="272" xmlns="http://www.w3.org/2000/svg"><g fill="none" fill-rule="evenodd"><path d="M0 0h241v273H0z"/><g fill-rule="nonzero"><path d="M52.13 240.801v16.866c.012 8.274 6.717 14.98 14.992 14.991h138.415c8.275-.012 14.98-6.717 14.992-14.991V240.8H52.13zM220.614 31.857V14.992A15.032 15.032 0 00205.537 0H67.207c-8.275.012-14.98 6.717-14.992 14.992v16.865h168.4z" fill="#000"/><path d="M52.13 31.857h168.4V240.8H52.13z" fill="#F1F1F1"/><circle cx="7.836" cy="7.836" r="7.836" transform="translate(128.536 249.831)" fill="#FFF"/><g fill="#F4AFA7"><path d="M233.477 101.79c-7.151 7.15-18.744 7.15-25.894 0-7.15-7.151-7.15-18.744 0-25.894 7.15-7.15 18.743-7.151 25.894 0a18.302 18.302 0 010 25.894z"/><path d="M233.477 138.331c-7.151 7.15-18.744 7.15-25.894 0-7.15-7.15-7.15-18.743 0-25.894 7.15-7.15 18.743-7.15 25.894 0a18.302 18.302 0 010 25.894z"/><path d="M233.477 174.959c-7.151 7.15-18.744 7.15-25.894 0-7.15-7.151-7.15-18.744 0-25.894 7.15-7.15 18.743-7.151 25.894 0a18.302 18.302 0 010 25.894z"/><path d="M233.477 211.5c-7.151 7.15-18.744 7.15-25.894 0-7.15-7.15-7.15-18.743 0-25.894 7.15-7.15 18.743-7.15 25.894 0a18.302 18.302 0 010 25.894z"/></g><path d="M85.946 224.021v48.723H0V157.838a62.728 62.728 0 0112.095-36.968l38.076-52.045a7.063 7.063 0 0110.137-1.363c11.734 9.186 15.087 25.52 7.921 38.586l-11.755 21.466v49.403l1.278.684a52.17 52.17 0 0128.196 46.423l-.002-.003z" fill="#F4AFA7"/></g><path d="M86.71 122.822c0-12.29 0-18.436 2.392-23.13a21.945 21.945 0 019.59-9.59c4.694-2.392 10.84-2.392 23.13-2.392h25.536c12.29 0 18.436 0 23.13 2.392a21.944 21.944 0 019.59 9.59c2.392 4.694 2.392 10.84 2.392 23.13v25.536c0 12.29 0 18.436-2.392 23.13a21.944 21.944 0 01-9.59 9.59c-4.694 2.392-10.84 2.392-23.13 2.392h-25.536c-12.29 0-18.436 0-23.13-2.392a21.944 21.944 0 01-9.59-9.59c-2.392-4.694-2.392-10.84-2.392-23.13v-25.536z"/><path fill="#FFA300" fill-rule="nonzero" d="M150.06 101.39h13.374v68.712H150.06z"/><path d="M126.08 170.101c13.244 0 23.98-10.736 23.98-23.98 0-13.243-10.736-23.98-23.98-23.98s-23.98 10.737-23.98 23.98c0 13.244 10.736 23.98 23.98 23.98zm0-35.047c-6.113 0-11.068 4.955-11.068 11.068 0 6.112 4.955 11.067 11.068 11.067 6.112 0 11.067-4.955 11.067-11.067 0-6.113-4.955-11.068-11.067-11.068z" fill="#FFA300"/><path d="M89.102 171.488l1.397-.712-1.397.712zm90.976 0l-1.397-.712 1.397.712zm-9.59 9.59l-.712-1.397.712 1.397zm0-90.976l-.712 1.397.712-1.397zm9.59 9.59l-1.397.712 1.397-.712zm-58.256-10.414h25.536v-3.136h-25.536v3.136zm59.08 33.544v25.536h3.136v-25.536h-3.136zm-33.544 59.08h-25.536v3.136h25.536v-3.136zm-59.08-33.544v-25.536h-3.136v25.536h3.136zm33.544 33.544c-6.171 0-10.705 0-14.286-.293-3.562-.291-6.043-.863-8.132-1.928l-1.423 2.794c2.605 1.327 5.544 1.951 9.3 2.258 3.738.306 8.422.305 14.54.305v-3.136zm-36.68-33.544c0 6.12 0 10.803.305 14.541.307 3.756.93 6.696 2.258 9.3l2.794-1.423c-1.065-2.09-1.637-4.57-1.928-8.132-.292-3.581-.293-8.115-.293-14.286h-3.136zm14.262 31.323a20.377 20.377 0 01-8.905-8.905l-2.794 1.423a23.512 23.512 0 0010.276 10.276l1.423-2.794zm81.498-31.323c0 6.171 0 10.705-.293 14.286-.291 3.562-.863 6.043-1.928 8.132l2.794 1.423c1.327-2.604 1.951-5.544 2.258-9.3.306-3.738.305-8.422.305-14.54h-3.136zm-33.544 36.68c6.12 0 10.803 0 14.541-.305 3.756-.307 6.696-.93 9.3-2.258l-1.423-2.794c-2.09 1.065-4.57 1.637-8.132 1.928-3.581.292-8.115.293-14.286.293v3.136zm31.323-14.262a20.377 20.377 0 01-8.905 8.905l1.423 2.794a23.512 23.512 0 0010.276-10.276l-2.794-1.423zm-31.323-81.498c6.171 0 10.705 0 14.286.293 3.562.291 6.043.863 8.132 1.928l1.423-2.794c-2.604-1.327-5.544-1.951-9.3-2.258-3.738-.306-8.422-.305-14.54-.305v3.136zm36.68 33.544c0-6.12 0-10.803-.305-14.541-.307-3.756-.93-6.695-2.258-9.3l-2.794 1.423c1.065 2.09 1.637 4.57 1.928 8.132.292 3.581.293 8.115.293 14.286h3.136zm-14.262-31.323a20.377 20.377 0 018.905 8.905l2.794-1.423a23.512 23.512 0 00-10.276-10.276l-1.423 2.794zm-47.954-5.357c-6.12 0-10.803 0-14.541.305-3.756.307-6.695.93-9.3 2.258l1.423 2.794c2.09-1.065 4.57-1.637 8.132-1.928 3.581-.292 8.115-.293 14.286-.293v-3.136zm-33.544 36.68c0-6.171 0-10.705.293-14.286.291-3.562.863-6.043 1.928-8.132l-2.794-1.423c-1.327 2.605-1.951 5.544-2.258 9.3-.306 3.738-.305 8.422-.305 14.54h3.136zm9.703-34.117a23.513 23.513 0 00-10.276 10.276l2.794 1.423a20.378 20.378 0 018.905-8.905l-1.423-2.794z" fill="#FFA300" fill-rule="nonzero"/></g></svg>