<svg width="24" height="24" xmlns="http://www.w3.org/2000/svg"><g fill="none" fill-rule="evenodd"><path d="M0 0h24v24H0z"/><path fill="#F1F1F1" d="M0 0h24v24H0z"/><g fill="#19191C" fill-rule="nonzero"><path d="M19.637 5H4.603c-.247 0-.478.06-.687.16l8.168 8.169 1.831-1.76 6.409-6.408c-.21-.1-.44-.161-.687-.161zm1.443.917l-6.031 6.03 6.03 6.03c.1-.209.161-.44.161-.686V6.603c0-.247-.06-.477-.16-.686zM3.16 5.916c-.1.21-.16.44-.16.687v10.688c0 .246.06.477.16.686l6.031-6.03-6.03-6.03z"/><path d="M14.293 12.703l-1.83 1.76a.533.533 0 01-.756 0l-1.76-1.76-6.03 6.03c.208.1.44.16.686.16h15.034c.247 0 .478-.06.687-.16l-6.03-6.03z"/></g></g></svg>