<svg width="400" height="400" xmlns="http://www.w3.org/2000/svg"><g fill="none" fill-rule="evenodd"><path d="M0 0h400v400H0z"/><g fill-rule="nonzero"><path d="M322.709 120.433l60.244 43.766-12.774 17.536a5.131 5.131 0 01-7.256 1.133 9.931 9.931 0 00-2.948-1.512 11.793 11.793 0 00-3.326-.605l-5.82-.154c-.077-.076-.154 0-.228 0a28.548 28.548 0 01-6.122-.907 27.332 27.332 0 01-7.862-3.553l-1.133-.831-8.315-6.047a23.061 23.061 0 01-6.727-7.786 25.92 25.92 0 01-2.267-6.274l-.378-2.116a9.419 9.419 0 00-3.628-5.669 9.17 9.17 0 01-2.041-12.773l10.58-14.208z" fill="#E2E2E2"/><path d="M200.029 209.535a6.108 6.108 0 01-2.57-.605 5.642 5.642 0 01-2.419-7.634 188.79 188.79 0 0129.176-39.684c25.172-26.23 54.047-40.062 83.602-40.062a81.702 81.702 0 0158.203 24.112 5.666 5.666 0 01-8.012 8.012 70.556 70.556 0 00-50.191-20.786c-26.682 0-52.004 12.245-75.21 36.358a183.341 183.341 0 00-27.514 37.19 5.606 5.606 0 01-5.065 3.099z" fill="#FFA300"/><path d="M92.315 286.181a5.67 5.67 0 110-11.338c64.176 0 102.343-72.867 102.724-73.547a5.663 5.663 0 1110.054 5.215 188.79 188.79 0 01-29.177 39.684c-25.17 26.154-54.046 39.986-83.601 39.986z" fill="#FFA300"/><path d="M307.817 286.181c-29.555 0-58.43-13.832-83.6-40.061-18.746-19.502-28.8-38.852-29.178-39.684a5.663 5.663 0 1110.054-5.216 177.687 177.687 0 0027.514 37.19c23.206 24.112 48.528 36.357 75.21 36.357 28.708 0 54.588-17.294 65.574-43.816 10.986-26.522 4.915-57.05-15.383-77.351a5.666 5.666 0 018.012-8.012c23.543 23.552 30.586 58.964 17.849 89.733-12.738 30.769-42.75 50.84-76.052 50.86z" fill="#141414"/><path d="M92.316 286.181a82.316 82.316 0 110-164.631c29.555 0 58.43 13.833 83.6 40.062 18.746 19.501 28.8 38.852 29.178 39.684a5.663 5.663 0 11-10.054 5.215 179.895 179.895 0 00-27.514-37.189c-23.206-24.112-48.528-36.358-75.21-36.358-39.179 0-70.94 31.76-70.94 70.94 0 39.178 31.761 70.939 70.94 70.939a5.67 5.67 0 010 11.338z" fill="#141414"/><path d="M342.21 115.37a11.92 11.92 0 00-5.367-2.193 12.062 12.062 0 00-6.5.68c-.215.11-.444.186-.681.227-.391.147-.77.324-1.134.53-.326.13-.632.309-.907.53-.154.076-.302.226-.453.301-1.103.8-2.072 1.77-2.873 2.873l-1.512 2.116-1.512 2.116a16.22 16.22 0 00-1.89 3.553c0 .227-.154.302-.154.53a4.39 4.39 0 00-.227 1.058 8.417 8.417 0 00-.153 1.285c-.038.25-.038.505 0 .755a12.715 12.715 0 001.435 6.426 13.116 13.116 0 003.78 4.463l.154.077 38.777 28.194a16.698 16.698 0 004.006 2.04c1.434.496 2.946.726 4.463.681l.077.077a12.712 12.712 0 009.977-5.14l1.663-2.268 1.663-2.268a12.476 12.476 0 001.814-11.036l-.077-.077a14.34 14.34 0 00-2.04-4.006 15.794 15.794 0 00-3.175-3.175l-38.777-28.194-.378-.156z" fill="#FFF"/><path d="M349.996 121.039l4.31-2.646a2.16 2.16 0 012.494.077 2.309 2.309 0 01.077 3.629l-1.285 1.058a2.404 2.404 0 01-2.646 0l-2.95-2.118z" fill="#FFF"/><path d="M343.495 118.847l34.012 24.717a51.831 51.831 0 01-27.892-17.386l-6.12-7.331z" fill="#141414"/><path d="M331.703 146.134l-1.208 4.913a2.084 2.084 0 00.907 2.343 2.317 2.317 0 003.478-1.058l.605-1.587a2.188 2.188 0 00-.832-2.57l-2.95-2.041z" fill="#FFF"/><path d="M338.355 120.585l-5.291 7.332-5.291 7.332-.154.227a2.407 2.407 0 001.436 3.477l11.867 4.078 4.463-6.198 4.463-6.198-7.559-9.978a2.54 2.54 0 00-3.779-.302l-.155.23zm-10.734 20.031l34.012 24.717a51.638 51.638 0 00-25.095-21.161l-8.917-3.556zm43.615 23.432c-2.798 2.268-6.274 2.192-8.012-.227l-4.387-6.5 10.13-13.909 7.56 2.192c2.797.832 4.006 4.079 2.72 7.56a29.159 29.159 0 01-8.011 10.884" fill="#141414"/><path d="M378.719 141.9a8.249 8.249 0 00-2.72-3.477l-6.882-4.988a8.922 8.922 0 00-4.155-1.512l13.757 9.977zm-18.293 25.171a8.922 8.922 0 01-4.155-1.512l-6.878-4.989a8.25 8.25 0 01-2.724-3.476l13.757 9.977z" fill="#FFF"/></g></g></svg>