<svg width="342" height="342" xmlns="http://www.w3.org/2000/svg"><g fill="none" fill-rule="evenodd"><path d="M0 0h342v342H0z"/><g fill-rule="nonzero"><path d="M170.099 322.316c75.685 0 136.977-61.394 136.977-137.078 0-75.686-61.392-137.08-136.977-137.08-75.585 0-136.978 61.394-136.978 137.08 0 75.684 61.292 137.078 136.978 137.078z" fill="#E4E4E4"/><path fill="#FFF" d="M141.113 144.879H124.81v126.914h16.304zm105.274-126.31h-16.305v126.814h16.305zm58.778 178.142H223.14v16.405h82.026z"/><path d="M141.515 144.879c1.309-.805 2.516-1.31 3.724-1.811L57.175 55.204H33.322l99.84 99.941c1.51-4.329 4.227-8.053 8.353-10.266z" fill="#FFF"/><path fill="#FFF" d="M270.341 137.733H132.357v16.404h137.984z"/><path d="M196.467 11.02c-14.693-14.694-38.345-14.694-52.938 0-12.178 12.28-14.09 30.798-6.04 45.19l32.308 55.657 32.307-55.657c8.555-14.392 6.642-32.81-5.637-45.19z" fill="#FFA300"/><path d="M170.1 26.117c1.51 0 2.918.403 4.428.806a8.698 8.698 0 013.724 2.616c1.107 1.108 1.912 2.315 2.617 3.724.503 1.41.805 2.919.805 4.429 0 1.51-.403 2.918-.805 4.428a8.698 8.698 0 01-2.617 3.724c-1.107 1.107-2.315 1.912-3.724 2.617-1.41.503-2.919.805-4.428.805-1.51 0-2.92-.403-4.429-.805a8.696 8.696 0 01-3.724-2.617c-1.107-1.107-1.912-2.315-2.616-3.724-.504-1.409-.806-2.919-.806-4.428 0-1.51.403-2.92.806-4.429a8.696 8.696 0 012.616-3.724c1.107-1.107 2.315-1.912 3.724-2.616 1.61-.504 2.818-.806 4.429-.806z" fill="#141414"/><path d="M262.491 128.373l7.045 14.09c1.108 2.113 3.322 2.718 5.133 1.61 1.81-1.207 2.516-3.723 1.408-5.736l-7.648-13.89c-1.108-2.113-3.322-4.428-5.736-3.22-2.315 1.107-1.208 5.032-.202 7.146zm12.881 44.686l3.624 7.247c1.309 2.718 4.328 5.637 7.045 7.649 1.409 1.108 2.114 2.616 2.215 4.228l-.201 18.316 25.664.2.503-44.685-10.567 7.146-28.283-.101z" fill="#F4AFA7"/><path d="M303.352 168.127v3.925c0 1.913-1.408 3.523-3.22 3.523l-28.583-.201c-1.811 0-3.019-1.61-3.019-3.523v-3.925l34.822.201z" fill="#19191C"/><path fill="#FFF" d="M268.933 119.818l-.403 48.008 34.822.301.403-48.007z"/><path d="M265.511 155.044c1.509 2.717 4.932 2.717 6.442 0 .805-1.409.805-3.22 0-4.43-1.51-2.717-4.933-2.717-6.442 0-.806 1.411-.806 3.12 0 4.43z" fill="#F4AFA7"/><path d="M265.41 163.699c1.509 2.717 4.931 2.717 6.441 0 .805-1.41.805-3.22 0-4.428-1.51-2.717-4.932-2.717-6.44 0-.706 1.208-.706 3.12 0 4.428zm30.899 17.915l17.712-8.354.102-19.424c0-3.02-.805-6.14-2.517-8.756l-9.057-14.493c-.504-.805-1.41-.906-2.114-.403-2.516 2.114-2.617 4.831-1.207 7.85l4.025 10.469-.905 9.46-3.222 3.924c-1.912 2.315-2.918 5.336-3.018 8.456l.201 11.27zm-30.798-35.024c1.509 2.718 4.932 2.718 6.442 0 .805-1.409.805-3.221 0-4.429-1.51-2.717-4.933-2.717-6.442 0-.806 1.208-.806 3.02 0 4.43z" fill="#F4AFA7"/><path d="M268.933 122.838v-3.926c0-1.912 1.408-3.522 3.22-3.522l28.583.201c1.811 0 3.019 1.61 3.019 3.523v3.925l-34.822-.201z" fill="#19191C"/><path fill="#141414" d="M314.222 280.146l-.603-87.059-28.08.403-18.619 68.64z"/><path d="M111.724 248.745c-.704.201-4.126.805-8.152 1.409-8.857 1.309-17.512-2.315-22.645-9.663l-6.039-8.354c-.906-1.307-2.013-2.514-3.22-3.622L55.665 213.72c-4.63-4.228-7.246-10.165-7.548-16.405l-.906-25.061c-.202-4.428 4.63-7.548 8.555-5.435l19.323 9.863c5.637 2.92 10.266 7.55 13.084 13.186l17.513 34.722" fill="#19191C"/><path d="M155.002 245.121l-71.559 67.232-16.707-84.844c-2.717-5.738-4.328-11.978-4.227-18.519.201-13.285 6.542-24.759 17.21-27.879 9.16-2.819 19.626 1.208 27.376 10.367l47.907 53.643z" fill="#FFF"/><path d="M166.878 295.846c.906.102 5.435-.201 10.568-.604 11.273-.906 21.135-8.252 25.363-18.72l4.931-12.278c.805-1.913 1.811-3.724 2.919-5.435l15.5-23.15c4.427-6.741 6.139-14.793 4.628-22.744l-6.24-31.704c-1.207-5.636-7.85-8.051-12.177-4.226L191.335 195.1a39.323 39.323 0 00-12.38 20.331l-11.372 48.51" fill="#19191C"/><path d="M289.061 313.661l-66.526 19.625c-34.22 10.165-70.653 10.165-104.872-.1L51.136 313.46c-33.515-9.965-33.515-57.57 0-67.432l66.527-19.627c34.219-10.165 70.652-10.165 104.872.102l66.526 19.726c33.615 10.063 33.414 57.569 0 67.432z" fill="#141414"/><path d="M132.054 240.894c0-5.938-4.63-10.769-10.265-10.769-5.737 0-10.367 4.73-10.367 10.669 0 5.937 4.63 10.768 10.266 10.768s10.366-4.83 10.366-10.668zm96.62.302c0-5.937-4.63-10.768-10.265-10.768-5.738 0-10.368 4.73-10.368 10.667 0 5.939 4.63 10.77 10.266 10.77 5.737 0 10.367-4.731 10.367-10.669z" fill="#F4AFA7"/><path d="M220.925 248.946c.1-34.824-22.545-63.206-50.726-63.306-28.08-.101-51.027 28.08-51.128 62.904-.1 34.822 22.545 63.205 50.726 63.305 28.08.101 51.027-28.08 51.128-62.903z" fill="#F4AFA7"/><path d="M176.842 186.244h-13.184l4.126-9.058c.906-2.113 4.026-2.113 4.932 0l4.126 9.058z" fill="#F4AFA7"/><path d="M143.127 204.762c0-3.522-4.227-5.435-6.744-2.918-11.775 11.071-22.242 33.616-22.344 51.932-.1 21.639 10.066 40.56 25.666 51.43 4.327 3.02 9.058 5.435 14.09 7.045v.102c5.032 1.61 10.366 2.616 15.902 2.616 30.797.101 55.858-26.973 55.958-60.488v-.504c0-13.787-5.535-28.38-15.297-38.344-4.931-5.033-11.072-8.958-18.015-10.468-8.354-1.913-16.205.504-24.458 1.51-6.844.805-13.587 1.309-20.43 2.114-2.315.1-4.328-1.813-4.328-4.027z" fill="#000"/></g></g></svg>