<svg width="342" height="272" xmlns="http://www.w3.org/2000/svg"><g fill="none" fill-rule="evenodd"><path d="M0 0h342v272H0z"/><path d="M83.145 114.246V44.572A44.568 44.568 0 01127.717 0a44.57 44.57 0 0131.538 13.033l16.254 16.254a39.83 39.83 0 0028.16 11.666h30.013a44.397 44.397 0 0144.41 44.411v28.964c-.085-.082-199.05-.082-194.947-.082z" fill="#FFF" fill-rule="nonzero"/><path d="M341.887 224.952V76.835c0-7.533-2.99-14.758-8.317-20.084a28.401 28.401 0 00-20.083-8.317h-32.584a68.542 68.542 0 00-48.997 20.676l-6.437 6.517a34.68 34.68 0 01-24.86 10.46H156.68a31.334 31.334 0 00-22.447 9.412 38.204 38.204 0 01-27.435 11.505H83.145c-22.693.107-41.051 18.5-41.113 41.194v76.754h299.855z" fill="#E4E4E4" fill-rule="nonzero"/><path fill="#141414" fill-rule="nonzero" d="M118.114 64.077l12.792-14.964H88.185v47.066h6.436V79.042h36.288z"/><path d="M341.887 165.255v64.363L1 226.642v-105.88c.007-18.792 15.24-34.025 34.032-34.031h32.745A42.102 42.102 0 0197.385 98.96l19.63 19.63a41.774 41.774 0 0029.528 12.23h17.459a41.774 41.774 0 0129.526 12.233l9.896 9.896a41.774 41.774 0 0029.527 12.229h108.94l-.004.077z" fill="#C7C7C7" fill-rule="nonzero"/><g fill-rule="nonzero"><g transform="translate(1 159.703)"><path d="M340.888 95.902V54.79l-15.931-4.506a301.903 301.903 0 00-48.193-12.873L265.42 35.4 205.804 9.896A123.192 123.192 0 00157.45 0h-41.353a88.739 88.739 0 00-36.93 8.045L36.289 27.594H20.194A13.508 13.508 0 007.08 37.814L0 65.41l2.172 9.092a30.19 30.19 0 0019.147 21.4l13.195 4.747a22.523 22.523 0 007.24 1.286h293.1a5.974 5.974 0 006.034-6.033z" fill="#FFF"/><path d="M70.077 25.665l9.815 9.171h126.073V28.24a3.69 3.69 0 013.704-3.705h2.81c1.88.017 3.739.4 5.472 1.127l20.999 9.01c.304.132.635.187.965.162a2.433 2.433 0 00.966-4.666l-36.445-15.605a118.628 118.628 0 00-46.824-9.574h-41.354a85.084 85.084 0 00-35.322 7.643l-9.333 4.264a5.315 5.315 0 00-1.526 8.77zM21.32 95.902h319.567a5.94 5.94 0 01-5.953 5.954H41.756a20.212 20.212 0 01-7.24-1.285L21.32 95.902z" fill="#000"/><path d="M247.962 98.879l58.089.08V85.764c-.022-16.032-13.013-29.023-29.045-29.044-16.032.022-29.023 13.013-29.044 29.044V98.88zm-209.906.001h58.088V85.846c-.02-16.032-13.012-29.024-29.044-29.045-16.032.022-29.023 13.013-29.044 29.044V98.88z" fill="#000"/><circle fill="#000" cx="67.1" cy="85.765" r="26.068"/><circle fill="#000" cx="277.007" cy="85.765" r="26.068"/><circle fill="#FFF" cx="277.006" cy="85.765" r="17.378"/><circle fill="#FFF" cx="67.1" cy="85.765" r="17.378"/><path d="M340.884 79.087h-12.226a2.873 2.873 0 00-2.495 4.264l7.322 13.276h7.485v-17.54h-.086zM3.38 52.215h15.447a10.16 10.16 0 007.24-2.977l8.127-8.125a1.89 1.89 0 00-1.368-3.218H7.084l-3.705 14.32z" fill="#000"/></g><path d="M302.384 214.492v2.655a3.112 3.112 0 002.574 3.058l32.423 4.505-4.746-10.218h-30.251z" fill="#FFA300"/><path fill="#000" d="M341.887 225.354v-10.862h-9.172l4.747 10.218z"/></g><path d="M305.361 117.705L324.51 95.34h-63.882v70.237h9.574v-25.504h54.308z" fill="#141414" fill-rule="nonzero"/><path d="M224.182 14.32l10.62-12.39h-35.4v38.94h5.31V26.712H234.8z" fill="#FFA300" fill-rule="nonzero"/></g></svg>