<svg width="102" height="22" viewBox="0 0 188 41" fill="none" xmlns="http://www.w3.org/2000/svg"><path fill-rule="evenodd" clip-rule="evenodd" d="M136.491 12.405h-8.663l10.404 27.777h9.519l10.551-27.777h-8.63l-6.681 19.66-6.5-19.66zm33.946 0h-7.82v27.777h7.82V19.687h9.709v20.495h7.82V20.226a7.82 7.82 0 00-7.82-7.82h-2.112c-4.226 0-7.595 2.698-7.597 7.28v-7.28zM28.047 0h7.82v40.182h-7.82V0zm0 26.159c0 7.745-6.279 14.023-14.024 14.023C6.278 40.182 0 33.904 0 26.16s6.278-14.023 14.023-14.023 14.024 6.278 14.024 14.023zm-14.024-6.472a6.472 6.472 0 100 12.944 6.472 6.472 0 000-12.944zm81.983 6.472c0 7.745-6.279 14.023-14.023 14.023-7.745 0-14.024-6.278-14.024-14.023s6.279-14.023 14.023-14.023c7.745 0 14.024 6.278 14.024 14.023zm0-13.754h7.821v27.777h-7.821V12.405zm-14.023 7.282a6.472 6.472 0 100 12.944 6.472 6.472 0 000-12.944zm-41.261-7.282h14.292v7.278c.002-4.084 2.539-7.278 7.744-7.278h3.205v7.282H55.015V32.9h6.472v7.281H40.722V32.9h6.472V19.687h-6.472v-7.282zM123.243 0h-7.82v7.82h7.82V0zm0 12.405H108.95v7.282h6.473V32.9h-6.473v7.281h20.766V32.9h-6.473V12.405z" fill="#f1f1f1"/></svg>