<svg width="800" height="800" fill="none" xmlns="http://www.w3.org/2000/svg"><path d="M529.241 114.286h111.724v574.031H529.241V114.286z" fill="#fff" opacity=".3"/><path fill-rule="evenodd" clip-rule="evenodd" d="M328.905 688.32c110.641 0 200.333-89.693 200.333-200.333 0-110.641-89.692-200.334-200.333-200.334s-200.333 89.693-200.333 200.334c0 110.64 89.692 200.333 200.333 200.333zm-63.893-292.791c-15.78 0-28.572 12.792-28.572 28.571v127.78c0 15.78 12.792 28.572 28.572 28.572h127.78c15.779 0 28.571-12.792 28.571-28.572V424.1c0-15.779-12.792-28.571-28.571-28.571h-127.78z" fill="#fff" opacity=".3"/></svg>